<svg width="14" height="16" viewBox="0 0 14 16" fill="none" xmlns="http://www.w3.org/2000/svg">
<path fill-rule="evenodd" clip-rule="evenodd" d="M0.25 6.81249C0.25 4.4143 0.25 3.21521 0.533137 2.81181C0.816273 2.4084 1.94374 2.02247 4.19868 1.25059L4.62829 1.10354C5.80374 0.701179 6.39146 0.5 7 0.5C7.60854 0.5 8.19626 0.701179 9.37171 1.10354L9.80132 1.25059C12.0563 2.02247 13.1837 2.4084 13.4669 2.81181C13.75 3.21521 13.75 4.4143 13.75 6.81249V7.99352C13.75 12.2221 10.5708 14.2741 8.57608 15.1455C8.03499 15.3818 7.76444 15.5 7 15.5C6.23556 15.5 5.96501 15.3818 5.42392 15.1455C3.42922 14.2741 0.25 12.2221 0.25 7.99352V6.81249ZM7 4.4375C7.31066 4.4375 7.5625 4.68934 7.5625 5V8C7.5625 8.31066 7.31066 8.5625 7 8.5625C6.68934 8.5625 6.4375 8.31066 6.4375 8V5C6.4375 4.68934 6.68934 4.4375 7 4.4375ZM7 11C7.41421 11 7.75 10.6642 7.75 10.25C7.75 9.83579 7.41421 9.5 7 9.5C6.58579 9.5 6.25 9.83579 6.25 10.25C6.25 10.6642 6.58579 11 7 11Z" fill="#8E0205" fill-opacity="0.97"/>
</svg>
